<svg width="32" height="33" viewBox="0 0 32 33" fill="none" xmlns="http://www.w3.org/2000/svg">
<rect y="0.981689" width="32" height="32" rx="7" fill="#FFE0E0"/>
<path d="M13.5142 21.3068C15.2825 21.5157 17.0694 21.5157 18.8378 21.3068C18.8448 21.3058 18.8517 21.305 18.8587 21.3043C20.3392 21.1283 21.7977 20.8043 23.2123 20.3374C22.0209 18.7556 21.371 16.8224 21.374 14.8281V14.1098C21.374 12.7313 20.8263 11.4092 19.8515 10.4343C18.8767 9.45954 17.5546 8.91189 16.176 8.91189C14.7974 8.91189 13.4753 9.45954 12.5005 10.4343C11.5257 11.4091 10.978 12.7313 10.978 14.1098L10.978 14.8274C10.9807 16.8225 10.3306 18.7558 9.13884 20.3375C10.547 20.8023 12.004 21.1267 13.4935 21.3043C13.5004 21.305 13.5073 21.3058 13.5142 21.3068ZM8.02535 21.1101C7.66132 20.9757 7.54823 20.5161 7.8083 20.2281C9.14508 18.7477 9.88388 16.8234 9.88118 14.8281V14.1098C9.88118 12.4404 10.5444 10.8392 11.7249 9.65874C12.9054 8.47823 14.5065 7.81503 16.176 7.81503C17.8455 7.81503 19.4466 8.47823 20.6271 9.65875C21.8076 10.8393 22.4708 12.4404 22.4708 14.1098V14.8289C22.4679 16.8234 23.2064 18.7477 24.5428 20.2281C24.8028 20.5162 24.6897 20.9758 24.3256 21.1101C22.7875 21.6779 21.1945 22.0821 19.5729 22.3165C19.6112 22.6334 19.6051 22.9552 19.5538 23.2725C19.4679 23.8044 19.2576 24.3084 18.94 24.7437C18.6223 25.1789 18.2065 25.533 17.7262 25.777C17.2459 26.0211 16.7147 26.1484 16.176 26.1484C15.6373 26.1484 15.1061 26.0211 14.6258 25.777C14.1455 25.533 13.7296 25.1789 13.412 24.7437C13.0944 24.3084 12.8841 23.8044 12.7982 23.2725C12.7469 22.9552 12.7408 22.6333 12.7791 22.3164C11.1483 22.0805 9.55698 21.6757 8.02535 21.1101ZM13.868 22.4481C13.842 22.6634 13.8462 22.882 13.881 23.0975C13.9394 23.4589 14.0823 23.8014 14.2981 24.0971C14.5139 24.3928 14.7964 24.6334 15.1227 24.7992C15.4491 24.965 15.81 25.0515 16.176 25.0515C16.542 25.0515 16.9029 24.965 17.2293 24.7992C17.5556 24.6334 17.8381 24.3928 18.0539 24.0971C18.2697 23.8014 18.4126 23.4589 18.471 23.0975C18.5058 22.882 18.51 22.6634 18.484 22.4481C16.949 22.5978 15.403 22.5978 13.868 22.4481Z" fill="#FF6464"/>
</svg>
